<svg xmlns="http://www.w3.org/2000/svg" viewBox="0 0 160.59 45.27"><defs><style>.cls-1{fill:#fff;}</style></defs><g id="Layer_2" data-name="Layer 2"><g id="Layer_1-2" data-name="Layer 1"><path class="cls-1" d="M6,44.11c-.51,0-.33.39-.4.46C6.5,44.47,6,44,6,44.11Z"/><polygon class="cls-1" points="14.52 43.1 14.37 43.27 15.62 42.85 14.52 43.1"/><path class="cls-1" d="M22.46,43.06c-.76-.71-2.88.13-4.29-.11l-.24-.16-.63.58A33,33,0,0,1,22.46,43.06Z"/><path class="cls-1" d="M26.7,44.57c-.26-.27.91-.24-1-.08l.18.07A7.69,7.69,0,0,1,26.7,44.57Z"/><path class="cls-1" d="M25.89,44.56c-.83,0,.55.23,0,0Z"/><path class="cls-1" d="M29.75,44.37l-1.1.26c.23.16,1.21.19.85.31C30.63,44.8,30.4,44.64,29.75,44.37Z"/><path class="cls-1" d="M30.79,43.85l-.57.11C30.32,44,30.47,44.05,30.79,43.85Z"/><path class="cls-1" d="M29,44.18,30.22,44c-.16-.12-.18-.35-.55.08C29.76,43.83,29.53,44,29,44.18Z"/><path class="cls-1" d="M28.33,44.08c-.62-.15-1.42-.24-.32-.5C25.91,43.7,26.22,44.2,28.33,44.08Z"/><path class="cls-1" d="M22.86,42.32,22,42.11l-.71.25C21.67,42.24,22.91,42.54,22.86,42.32Z"/><path class="cls-1" d="M36.61,44.7c.07-.16-.37-.41-.45-.6l-.82.18C35.76,44.38,36.56,44.47,36.61,44.7Z"/><path class="cls-1" d="M36.16,44.1l1.21-.27C36.28,43.81,36.09,43.93,36.16,44.1Z"/><polygon class="cls-1" points="30.98 43.05 28.99 43.61 31.37 43.04 30.98 43.05"/><polygon class="cls-1" points="41.26 44.68 40.57 45.04 41.8 44.5 41.26 44.68"/><path class="cls-1" d="M44.34,44.6c-.51.3.7.49.17.67a8.08,8.08,0,0,0,2.19-.54A5.42,5.42,0,0,1,44.34,44.6Z"/><path class="cls-1" d="M47.78,44.39a9.45,9.45,0,0,0-1.08.34A4.5,4.5,0,0,0,47.78,44.39Z"/><path class="cls-1" d="M39.44,43.89a1.44,1.44,0,0,0,1,.43l-.48-.42Z"/><path class="cls-1" d="M39.91,43.88v0h1Z"/><path class="cls-1" d="M39.32,43.89h.12S39.37,43.84,39.32,43.89Z"/><path class="cls-1" d="M34.17,43.42c.72-.25,2.21-.51.76-.87C34.42,42.85,35.25,43.05,34.17,43.42Z"/><path class="cls-1" d="M38.73,43.36l-1.3-.09c0,.11.26.28-.09.4Z"/><polygon class="cls-1" points="39.36 43.22 38.73 43.36 39.2 43.39 39.36 43.22"/><path class="cls-1" d="M45.56,44a6.71,6.71,0,0,1,1.86-.24,21.11,21.11,0,0,0-2.23-.12C45.09,43.79,44.77,44,45.56,44Z"/><path class="cls-1" d="M42.81,43.91l.13,0C42.86,43.85,42.8,43.84,42.81,43.91Z"/><polygon class="cls-1" points="54.21 43.72 54.1 43.65 54.07 43.72 54.21 43.72"/><path class="cls-1" d="M45.06,43.57a2,2,0,0,0-1.2.17,13.26,13.26,0,0,1,1.33-.09C45.23,43.59,45.24,43.55,45.06,43.57Z"/><path class="cls-1" d="M49.67,44.18c-.29-.09-.62-.16-1-.23C49,44.09,49.57,44.29,49.67,44.18Z"/><path class="cls-1" d="M43.12,44,43,44C43.22,44.11,43.2,44.07,43.12,44Z"/><path class="cls-1" d="M43.12,44a4.26,4.26,0,0,0,.74-.26,7.17,7.17,0,0,0-.92.14A.81.81,0,0,1,43.12,44Z"/><path class="cls-1" d="M56.25,41c-.1.4-1.56.78-2.82.36-1.24.31-.42,1.6.67,2.32,0-.17,0-.33,1.31-.57-.45-.21-2.84-.49-1.76-.85,1.69-.22,1.39.13,2.21.33-.7-.49,2.15-.73,1.77-1.45l-1.48.26C56.12,41.25,56.66,41.06,56.25,41Z"/><path class="cls-1" d="M51.67,43.62l-.53.05A6.72,6.72,0,0,1,53,44.2c.87-.2,1-.35,1.11-.48l-2.58,0Z"/><path class="cls-1" d="M48.78,43.69c.41-.43,1.67-.62.89-1.09-1.54,0-1.08.37-2,.57,2.49-.13-.71.24,1.09.47-.49.08-.93.1-1.34.13.45,0,.88.11,1.29.18l-.06,0h0c-.11-.05-.14-.08,0-.05h.05a.45.45,0,0,1,.11-.17c.72.09.11.12-.11.17,0,0,0,0,0,.06h0l2.49-.26A17,17,0,0,0,48.78,43.69Z"/><path class="cls-1" d="M36.26,41.62a.11.11,0,0,1,.08.1C36.5,41.66,36.56,41.63,36.26,41.62Z"/><path class="cls-1" d="M37.28,41.87a1.52,1.52,0,0,1-.92.19c-.51-.12,0-.2,0-.34-.36.11-1.25.31-.13.52l.18-.06a4.78,4.78,0,0,1,2.12.73A3.5,3.5,0,0,0,37.28,41.87Z"/><path class="cls-1" d="M43.1,42.67l2.08-.23-1.06-.36.05.22C43,42.22,43.25,42.5,43.1,42.67Z"/><polygon class="cls-1" points="54.45 43.93 54.17 44.39 55.37 43.74 54.45 43.93"/><polygon class="cls-1" points="57.15 43.86 57.05 44.26 57.76 44.01 57.15 43.86"/><path class="cls-1" d="M124.47,7.17l-.61,0A4.4,4.4,0,0,0,124.47,7.17Z"/><path class="cls-1" d="M128.8,7.8l.14-.18C128.72,7.7,128.63,7.77,128.8,7.8Z"/><path class="cls-1" d="M123.4,43.36c.89.36,1.89.93,1.78.48l-.27-.43A4.28,4.28,0,0,1,123.4,43.36Z"/><path class="cls-1" d="M158.08,20.8l-.12.25a7,7,0,0,1,.4.61A6.1,6.1,0,0,0,158.08,20.8Z"/><path class="cls-1" d="M156.27,20.27l.12-.52.06-.52C156.39,19.47,156.36,19.8,156.27,20.27Z"/><path class="cls-1" d="M100.65,5.5l-.72.41C101,6,100.56,5.71,100.65,5.5Z"/><path class="cls-1" d="M84.77,43.51a11.37,11.37,0,0,0,1.92.25C85.76,43.52,85,43.15,84.77,43.51Z"/><path class="cls-1" d="M126.83,2.85c-.39,0-.56.09-.56.19C126.66,3,126.89,3,126.83,2.85Z"/><path class="cls-1" d="M88.9,43.74l-.4-.1a10.18,10.18,0,0,1-1.81.12A3.42,3.42,0,0,0,88.9,43.74Z"/><path class="cls-1" d="M15.07,15.53h-.19C14.88,15.6,15,15.58,15.07,15.53Z"/><path class="cls-1" d="M.5,33a9.08,9.08,0,0,1-.1-1.09A3.89,3.89,0,0,0,.5,33Z"/><path class="cls-1" d="M68,44c-.57,0-.09,0,0,0Z"/><path class="cls-1" d="M65.21,42.28c.12-.05.21-.11.22-.21A.38.38,0,0,1,65.21,42.28Z"/><path class="cls-1" d="M94.58,41h0C94.46,40.92,94.49,40.94,94.58,41Z"/><path class="cls-1" d="M67.14,43.78a4.57,4.57,0,0,0,.73.13A6.14,6.14,0,0,0,67.14,43.78Z"/><path class="cls-1" d="M67.26,44l-.5,0C66.68,44,66.75,44.07,67.26,44Z"/><path class="cls-1" d="M68.8,44a7,7,0,0,1-.93,0c.11,0,.16.05.13.07Z"/><path class="cls-1" d="M60.38,5.29l-.13,0C59.7,5.51,60,5.45,60.38,5.29Z"/><path class="cls-1" d="M137.92,38.05l-.06,0H138Z"/><path class="cls-1" d="M139.79,37.38a2.12,2.12,0,0,1-1.84.7l.85,1.13C139.15,38.59,139.48,38,139.79,37.38Z"/><path class="cls-1" d="M114.05,6.07l1.38.54c-1.77.45-3,.11-1.71.79.33-1.33,5.52.46,5.87-.87l.9.39c-.26,0-.32,0-.58,0,1.74.84,1.47-.84,3.79-.32.81.22,1.35.5.77.58l1.87-.08c.52.1.36.32-.16.22l2.78.28,0,0a11.23,11.23,0,0,1,1.83-.39c.67.31-.38.08-.22.28l1.58-.06c.57.45-.76.57-1.8.34,1.2,1.58,1.32-.12,4.27,1.19l-1.47-.08c.79.92,2,.84,3.5,1.59-.34-.31-3-1.75-1.33-1.8a3.8,3.8,0,0,0,2,.22c-.07.47.81.53,1.9.72l-.19.62c1.2.05,1.18-.28,1.92-.42a2,2,0,0,1,1.69,1.34c2.07.53-1.28-1.08,1.22-.69a18.91,18.91,0,0,0,5,.77c1,.55-.31.31,0,.61.37-.06.73-.12,1.1-.16.22.1.09.21,0,.27.83.14.31-.59,1.58-.18.3-.23.84.3,1.31,1a9.73,9.73,0,0,0,.77,1,2.09,2.09,0,0,0,1,.77c0,.43-.41.09-.55.34a9.86,9.86,0,0,1,1.33,1.33,13.46,13.46,0,0,1,1.15,1.36,8.76,8.76,0,0,1-.09,1.62c.15-.6.42-.59.74-.22a3.74,3.74,0,0,1,.49.75c.14.32.27.68.4,1a8.8,8.8,0,0,0,.49-1.15,16.85,16.85,0,0,1,.36,2.38c-.13.28-.33,0-.57-.37,0,.16.08.31.12.44-.29.81-.63.33-.95-.25.14-.27.32-.53.43-.8-.41-.56-.85-1-1.22-.89a2.27,2.27,0,0,1,.19.68c-.11-.13-.2-.22-.27-.15s.1.28.26.63l-.75.44.28.13a15.44,15.44,0,0,1-.84,2.57l.18,1.54c0,.52,0,1.06,0,1.66a11.81,11.81,0,0,1-.33,1.86c-.12.33-.24.66-.39,1a5.22,5.22,0,0,1-.57,1.06c.09-1-.59-.63-1-1,.54-.13.77-.73,1-1.39.14-.32.2-.72.33-1.09s.28-.73.44-1.1c-.36.76-.6.44-.59.22l-.35,1.4c-.14.46-.33.91-.49,1.37-.19-.16-.35-.08-.53.09s-.43.43-.73.65c1.15.17-.79,2.12-1.59,3-.28-.24-.24-.61.8-1.53a1.94,1.94,0,0,0-.81.57,3.08,3.08,0,0,0-.35.78,1.71,1.71,0,0,1-1.3,1.31c.29-.21.48-.28.5-.5a2.67,2.67,0,0,1-.59.56,6.25,6.25,0,0,1-.79.44c-.52.24-.93.3-.78.06l.3-.18c-1.06.52-2.69,1.3-4.16,1.88s-2.71,1.16-2.8,1.61a4.4,4.4,0,0,1,.18-1.27,38.32,38.32,0,0,1-3.86,3.64c.28-.78-1.41-2.29.53-3a6.48,6.48,0,0,0-2.5.36c.4.06,1.12.93.57,1.06a17.7,17.7,0,0,0-3-.86c.62.12,0,1.31-.94,1.33.14-.18-.15-1.12.19-1.26-.76.43-1.55.82-2.34,1.23.6-.22.07-.95-.47-1.26.26.22-2.07,0-2.72.15l1,.25C125,39,125,40.69,122.26,40.65a.87.87,0,0,0-.58-1.57c-.63.59-2.79,2.79-5.2,3.25L116,42l-1.85.39A38.35,38.35,0,0,1,120.29,39c-1-.25-.29-.38-1.83-.34-.54-.31.84-.48,1.29-.5l-3.58-.17c.16.67-2.74.69-2.6,1.25l3.89-.72c.16.67-2.24,1.92-4.78,1.82-.65-.26.48-1.2.42-1.42a6.3,6.3,0,0,1-2.64.29l1.07-.36c-1.41-.25-2.3.9-4,.27-.59,0-1.76-.85-1.86-.45,1,.76,1.17,3.13.53,3.71a27.11,27.11,0,0,1-3.75-1.09c-1-.59,1.44-1.44.61-2,0,.18-.56.41-.79.49-.61-.15.25-.57-1.08-.48-.22.68-2.73,0-.63.58-1.31.2-1.39-.13-2.93-.09.49.44-1.37,1.51-2.68,1.71.07-.17-.22-.4-.37-.5-2.68,0-4.12-.34-6.62-.33-.24-.16-1.45-.35-.93-.65a3.7,3.7,0,0,1-1.46.38c-1.5-.58,1.72-.11.57-.81-.09.4-2,.56-3.09.82.35.61,2.54.1,3.64-.16,0,.85-1.9,1.74-4.51,2.15-2.08.23-.9-.54-1.26-.41-3.91-.12-3.32,1.49-6.57.91-1.29-.53-.06-1.07-.35-1.46,1.69-.21,2.6.32,3.75.3l-1.41-.25a5.1,5.1,0,0,1,2.28-.17c-1.08-.48-6.6,0-9.61-.48-.54.19-1.46.38-1,.59l1-.08c.88.43-1.79.61-.58.81a11.51,11.51,0,0,1-4.51.57l-.34-.61c0,.18,1.18.35,1.68.16-.75.28-2.76-.81-3.58,0l1.26.42a12.34,12.34,0,0,1-4.46.79c.73.61.37-.07,1.51.63-1-.87,4.08,0,2.5-.9,1.17.81,2,.33,3.54,1,0-.2-.54-.38.8-.29a1.19,1.19,0,0,1,.29-.18h.09l-.08,0c.06,0,.07,0,0,0a1.66,1.66,0,0,1-.69-.3c.66-.47,2.79-.47,3.51-.71.8.09-.33.23.11.44L71,42.82c.11.44,2.12.73.25,1H73a7.8,7.8,0,0,0,3.2.14c.8.09,2-.51,1.31-.15l2.64-.3,0,.11c2.61,0,5.36-.78,8.35,0a13.12,13.12,0,0,1,3.25-.14l.29.38c1.13-.14,3.39.37,3.87,0,1.22,1,5.47.19,7.45.36l.07-.51a30,30,0,0,0,4.37-.35l-.11-.44c1.46-.38,3.76.29,6.06.23-.15.17-.74.13-1.15,0,2.76,1,5.81-.78,8.32-.06a2.84,2.84,0,0,1,1.51,0l-.15,0h.25c.28.07.56.16.87.23a3.64,3.64,0,0,0-.73-.24,14.47,14.47,0,0,0,1.93-.19l.31.48h.16c.71.17.57-.24.19-.6a5.67,5.67,0,0,0,.95-.29c.58.76,1.88-.29,2.69.51.47-.4,3.65-.44,4-1.33,0,.11.25.15-.14.18a5.07,5.07,0,0,0,2.34-.23l.4.58,1.68-1c1.11.21,1.61.36.6,1A23.44,23.44,0,0,1,140,41.3a7.68,7.68,0,0,0,1.88-.91l0,.41c.79-.19,1.86-1.08,2.41-.9A12.58,12.58,0,0,0,149.69,38a17.59,17.59,0,0,0,1.74-1.06l.87-.57.85-.67c.28-.22.57-.43.83-.66l.77-.71c.52-.45,1-.93,1.41-1.37-.76,0-.31-.34.25-.81s1.13-1.15.79-1.45c.4-.09.83-.65.67.18.46-1.19,1-2,1.31-2.78a3.88,3.88,0,0,0,.42-2.46c.35-.21.25.63.48.42a2.15,2.15,0,0,1,.18-1.07c.21-.23.17.42.16.84.55-2.63-.39-3-1.15-3.25a2.57,2.57,0,0,0-.17-2.77c.14-.22.23-.53.33-.59s.25.14.31.93a11.56,11.56,0,0,0-.34-3.09c-.29-1.27-.93-2.33-1.22-2.23a1.27,1.27,0,0,0-.27-.72,3.7,3.7,0,0,0-.49-.57,9.29,9.29,0,0,0-1.26-1.71,8,8,0,0,0-1.59-1.38l.37.43c-1.06.12-1.36-.88-2.82-1.46l.07-.05a5,5,0,0,0-2.27-1,8,8,0,0,1-2.26-.84l.06.51c-.53.91-2.69-1.22-4.63-1.2l.61.4c-1.08.14-2.54-1.95-3.54-2.29-.21-.13.38-.07.7-.07-2.56-1.14-.47.55-2.48.28-.31-.39.63-.76-.7-1.06-.63-.38-4.1.41-5.83-.54.37.33.72.65-.23.69-1.43-.19-3.71-1.56-5.12-.93-.17-.1-.23-.18-.23-.24-1.12.06-3.6-.15-4.31.2-.82-1.76-6.89.07-6.7-1.45-1.13-.11-2.26-.17-3.39-.23l.1-.14a6.37,6.37,0,0,0-3.73.34c-.49-.14-.12-.25-.07-.33a10.62,10.62,0,0,0-6.15.15l-.25-.5c-.73.26-4.54-1-7.67-.46a.49.49,0,0,1,.35-.21A23.09,23.09,0,0,1,88.79.08C87-.08,85.42-.09,84.8.82l-2.3.48c3,.1-.42.79.81,1.07-1.16.13-3-.49-1.6-.61l.23.09c.25-.47-.68-.56-1.66-.56s-2,0-2-.28c-2.93.17-5.83.14-8.68.27s-5.67.14-8.41.46l.7.66L60,2.56c-.52-.11-.74-.49.63-.61-.77-.34-2.25.59-2.27.75-2.7,0,.94-1,.13-.89L57.38,2l.26.06a5.24,5.24,0,0,1-2.54.89c-1.05,0-.59-.38-1-.35,0,0-.14,0-.62.07l-2.41.27,1,.44c-1,.43-2.25.29-1.06.78-1.77-.84-8.94,1.08-10,.94a17.81,17.81,0,0,1-4.65,1.27c.47,0,.86.61-.7.85.3-1.42-2.95,0-4.4-.67,1.25.36-4.35,1.2-2.4,1.67-1.31.2-.19-.47-1.24-.55a24.89,24.89,0,0,1-5,1.26,48.94,48.94,0,0,0-5.54,1.28c0,.19.68.28-.05.75-.74-.1-1.48-.22-2.22-.3-.73.31-.39,1.16-2,1,.24.08.6.19.11.41a15.72,15.72,0,0,0-5.67,2.39,14,14,0,0,0-4.28,4.87,22.17,22.17,0,0,0-2.06,6c-.43,2-.71,4.07-1,6.11.31-1.1.36-.37.4.46.07-.54.44,0,.67-.12C.9,32.9.76,34,.66,35.15c.7.53.5,3.5,1.19,3.74l-.27-1c.94,1.24,1.37-2.13,2.37-2-.52-.69-.32-1.71-.13-2.81a5.52,5.52,0,0,0-.21-3.48c.2-.52.3.46.52.18A3.14,3.14,0,0,1,4,27.09l.08.15a12,12,0,0,1,1.1-4.31A12.42,12.42,0,0,1,7.77,19.3l-.53-.09a1.88,1.88,0,0,1,.67-.54l.51-.22c.1-.59-.32-.2-.77.2s-.81.89-.84.29a1.67,1.67,0,0,0,.58-.27,5,5,0,0,0,.7-.47A14.21,14.21,0,0,1,9.75,17c1.22-.76,2.63-1.27,3.18-.9,1.28-.47-.57-.38.73-.84l.44.16.22-.47c.9-.23,1.47,0,1.57.23a4.75,4.75,0,0,0-.82.34c1.23,0,3.3-1.06,3.74-1.06l-1.4.19c1.88-.66,4-1.21,6.14-1.79a54.37,54.37,0,0,0,6-1.85l-.33-.15c2.77-1.07,2.34-.34,5.47-1.16l-.11.07A6.92,6.92,0,0,1,36.9,9c-.75.42,1.6.19.61.69C40.55,8.62,39,9,40.9,7.81l.55.28a4.35,4.35,0,0,1,2.26-1c-1.25.54,1.11.38-.28,1.05,3.47.23,4.83-1.69,6.55-.71,1.39-1.24-3-.15-2.16-.48-.77-.22,1.15-1,2.23-1s2,1,4.71.65c-.27,0-.28.11-.55.14,1,.13,1.93-.65,3.22-.35.63-.69,1.62-.14,1.73-.95l-2.46.45c1.38-.35,2.6-1.42,5-1.23a4.54,4.54,0,0,1-1.29.63c.7.16,1.29-.29,2-.13-.12.81-3,.5-4.44,1.26.76.26,2.78-.88,2.12.06,1-1.2,2.67-.15,4.42-1.18l-.07.48a4.73,4.73,0,0,1,1.4-.4l-.92.69c1.44-.64,2.9.23,4.3-.16-3,.25-.71-.52-2-.77,3.63-.91,2.21,1.05,6.3.55-.55.08-2.11-.14-1.25-.43a7.79,7.79,0,0,1,2.33.41c2.72-.23-.44-.47.7-.82,1,.54,1.33-.29,2.53-.54l0,.49C81,5,78.63,3.73,81.46,4c-.39.23-.78.46-1.17.71.49-.09,1-.15,1.46-.22l-.28.56a8,8,0,0,1,3.64-.21c-.37-.33.19-.88,1.57-.91.95.27-.52.46,1.44.36a1.49,1.49,0,0,1-1.78.27c-.08.16-.43.31-.52.46a10.42,10.42,0,0,0,3.25,0,2.69,2.69,0,0,1-.76-.1c.94-.25,1.89-.43,2.84-.65.44.19.09.33-.26.47.57,0,1-.26,1.82-.29-.23.39-.18.8-1.37,1L94,5.05c.18.17,1.37.49,1,.63,1.49.22,3.69-.67,5.66-.27a1.8,1.8,0,0,1,.74-.17c1.86.19,3.48.7,5.72.36l1.2.79c1.74,0-1.63-1,1.27-1,2.06-.07.71.65,1.41.9a6.86,6.86,0,0,1,4.68-.07A11.55,11.55,0,0,1,114.05,6.07Zm21.21,2.6c-.42,0-1.29.2-1.54-.13C134.28,8.08,134.6,8.4,135.26,8.67Zm21.64,15.1c-.12-.32.09-.74.29-1.23A2.71,2.71,0,0,1,156.9,23.77ZM74.27,43.54l0,0C75.25,43.7,74.92,43.63,74.27,43.54Zm-1.94-.2c-.19.07-.18.14-.09.21a1.84,1.84,0,0,1,1.06-.11C73.16,43.32,72.91,43.23,72.33,43.34ZM53.91,2.8l.39.07C53.47,3.13,53.7,3,53.91,2.8Z"/><path class="cls-1" d="M156.48,20.34a.48.48,0,0,1,.26-.18C156.65,20,156.56,20,156.48,20.34Z"/><path class="cls-1" d="M100.79,5.42h-.07a.18.18,0,0,0-.07.09Z"/><path class="cls-1" d="M102.29,39.05a2,2,0,0,1,.77.24C103.08,39.17,102.9,39.07,102.29,39.05Z"/><path class="cls-1" d="M62.08,44.23l1.24-.13A3,3,0,0,1,62.2,44C62.23,44.06,62.47,44.22,62.08,44.23Z"/><path class="cls-1" d="M51.3,41.32c-.18.06-.39,0-.57.07l.06.23C51.56,41.6,52.1,41.41,51.3,41.32Z"/><path class="cls-1" d="M60.92,42.64c-.1-.41-.88-.26-1.74-.18h.15C59.08,43,60,42.83,60.92,42.64Z"/><path class="cls-1" d="M59,42.47a5.35,5.35,0,0,1-.8,0C58.07,42.72,58.5,42.53,59,42.47Z"/><path class="cls-1" d="M69.88,43.63c-.41-.1-.26.52-.49.36C68.93,44.51,72.13,43.34,69.88,43.63Z"/><polygon class="cls-1" points="60.21 41.31 60.52 41.81 61.01 41.4 60.21 41.31"/><path class="cls-1" d="M67.07,41.63l-1.39-.13c0,.08-.15.13-.37.17C66.17,41.68,67.1,41.78,67.07,41.63Z"/><path class="cls-1" d="M65.31,41.67a3.94,3.94,0,0,0-1.12.09A7,7,0,0,0,65.31,41.67Z"/><polygon class="cls-1" points="62.1 41.14 62.52 41.24 63.5 41.27 62.1 41.14"/><path class="cls-1" d="M82,41.62l1.51-.15c.16-.18-.26-.28-.82-.21C82.32,41.39,81.76,41.46,82,41.62Z"/><path class="cls-1" d="M77.4,40.28a1.33,1.33,0,0,1,.67.38l0-.62Z"/><path class="cls-1" d="M81.82,40.1c.15-.17,2.19-.5.27-.45C81.94,39.82,80.42,40,81.82,40.1Z"/><polygon class="cls-1" points="104.64 40.73 104.26 40.74 104.32 41.76 104.64 40.73"/><path class="cls-1" d="M124.74,38.16c-1.79-.23-.42.63-2,.34-.42.24,1.33.23.9.45C124.68,38.68,125.24,38.82,124.74,38.16Z"/><path class="cls-1" d="M123.6,39l-.56.15A2.75,2.75,0,0,0,123.6,39Z"/><polygon class="cls-1" points="0.41 37.42 0.38 38.63 0.6 37.82 0.41 37.42"/><path class="cls-1" d="M1.51,39.55l-.59.38.69.59A1.83,1.83,0,0,1,1.51,39.55Z"/><path class="cls-1" d="M138.15,10.52l.11-.13c-.14-.2-.4-.27-.92-.4Z"/><polygon class="cls-1" points="122.96 7.6 123.22 7.65 122.81 7 122.96 7.6"/><path class="cls-1" d="M110,7c.52.06,1.15,0,1.68,0C110.51,7.07,109.9,6.26,110,7Z"/></g></g></svg>