<svg xmlns="http://www.w3.org/2000/svg" width="275.344" height="560.318" viewBox="0 0 275.344 560.318">
  <g id="Group_3" data-name="Group 3" transform="translate(-4707.934 -5656.19)">
    <path id="Subtraction_7" data-name="Subtraction 7" d="M194.776,559.318c-61.14,0-160.983-.415-161.974-.419a61.343,61.343,0,0,1-15.112-5.855,35.235,35.235,0,0,1-10.416-8.455,20.842,20.842,0,0,1-4.79-13.15c-.123-20.759-.124-292.848-.124-295.594H0V198.321H1.74V190H0V153.489H1.037l.63-120.321a35.042,35.042,0,0,1,.745-4.908A42.527,42.527,0,0,1,6.365,17.366,31.268,31.268,0,0,1,16.106,6.237,33.7,33.7,0,0,1,34.214.62C44.292.209,70.51,0,112.138,0c56.935,0,122.776.394,125.551.41.034,0,.125,0,.273,0,2.97,0,29.144.813,33.408,28.984,1.032,6.816,1.7,37.222,1.972,90.373.221,42.509.2,99.6-.073,169.685-.458,119.154-1.483,236.475-1.493,237.646a37.014,37.014,0,0,1-.876,4.939,44.839,44.839,0,0,1-4.144,10.9,29.859,29.859,0,0,1-27.2,16.212C232.812,559.261,217.745,559.318,194.776,559.318ZM64.167,13.706c-11.987,0-21.109.129-27.112.382a23.568,23.568,0,0,0-12.143,3.678,22.465,22.465,0,0,0-6.866,7.253,28.872,28.872,0,0,0-3.74,10.287c-.019,4.537-1.885,453.956,0,472.252a24.194,24.194,0,0,0,3.912,11.2,23.584,23.584,0,0,0,6.745,6.557,27.392,27.392,0,0,0,9.224,3.848h.03c3.462.026,85.453.624,143.795.624,32.057,0,51.487-.178,57.75-.528a25.121,25.121,0,0,0,12.954-4.064,21.783,21.783,0,0,0,6.878-7.729,27.881,27.881,0,0,0,3.2-10.86c.026-4.526,2.552-452.785.287-470.819a24.662,24.662,0,0,0-4.059-11.031,23.959,23.959,0,0,0-6.693-6.471,27,27,0,0,0-9.032-3.811H166.277a16.244,16.244,0,0,0-5.292,1.41,23.06,23.06,0,0,0-5.151,3.106,28.47,28.47,0,0,0-5.518,5.9A16.129,16.129,0,0,1,136.7,32.082a16.577,16.577,0,0,1-4.545-.6,17.22,17.22,0,0,1-3.6-1.78,22.58,22.58,0,0,1-6.822-6.726,15.842,15.842,0,0,0-4.16-4.171,27.565,27.565,0,0,0-4.957-2.747,35.339,35.339,0,0,0-5.89-1.971C106.514,14.085,84.416,13.706,64.167,13.706Z" transform="translate(4708.434 5656.69)" stroke="#707070" stroke-width="1"/>
    <path id="Path_21" data-name="Path 21" d="M4981.925,5827.164h2.706v40.6h-2.706Z" transform="translate(-1.353)"/>
    <circle id="Ellipse_7" data-name="Ellipse 7" cx="7" cy="7" r="7" transform="translate(4838 5668)" fill="#262626"/>
    <circle id="Ellipse_8" data-name="Ellipse 8" cx="3" cy="3" r="3" transform="translate(4842 5672)" fill="#404040"/>
    <path id="Path_22" data-name="Path 22" d="M4359.054,5759.759h45.113l-1.625,3.154h-41.768Z" transform="translate(463.569 -99)" fill="#262626"/>
  </g>
</svg>
